<svg width="38" height="32" viewBox="0 0 38 32" fill="none" xmlns="http://www.w3.org/2000/svg">
<path d="M7.6 21.7008H1.9C0.850844 21.7008 0 22.5516 0 23.6008V29.3008C0 30.3499 0.850844 31.2008 1.9 31.2008H7.6C8.64916 31.2008 9.5 30.3499 9.5 29.3008V23.6008C9.5 22.5516 8.64916 21.7008 7.6 21.7008ZM6.175 16.9508H17.575V19.8008H20.425V16.9508H31.825V19.8008H34.675V16.3814C34.675 15.1244 33.652 14.1008 32.3944 14.1008H20.425V10.3008H22.8C23.8492 10.3008 24.7 9.44994 24.7 8.40078V2.70078C24.7 1.65163 23.8492 0.800781 22.8 0.800781H15.2C14.1508 0.800781 13.3 1.65163 13.3 2.70078V8.40078C13.3 9.44994 14.1508 10.3008 15.2 10.3008H17.575V14.1008H5.60559C4.34803 14.1008 3.325 15.1238 3.325 16.3814V19.8008H6.175V16.9508ZM21.85 21.7008H16.15C15.1008 21.7008 14.25 22.5516 14.25 23.6008V29.3008C14.25 30.3499 15.1008 31.2008 16.15 31.2008H21.85C22.8992 31.2008 23.75 30.3499 23.75 29.3008V23.6008C23.75 22.5516 22.8992 21.7008 21.85 21.7008ZM36.1 21.7008H30.4C29.3508 21.7008 28.5 22.5516 28.5 23.6008V29.3008C28.5 30.3499 29.3508 31.2008 30.4 31.2008H36.1C37.1492 31.2008 38 30.3499 38 29.3008V23.6008C38 22.5516 37.1492 21.7008 36.1 21.7008Z" fill="#2D9DCD"/>
</svg>
