<svg width="15" height="15" viewBox="0 0 15 15" fill="none" xmlns="http://www.w3.org/2000/svg">
<path d="M10.4844 3L12.8333 5.34896C12.9323 5.44792 12.9323 5.60937 12.8333 5.70833L7.14583 11.3958L4.72917 11.6641C4.40625 11.7005 4.13281 11.4271 4.16927 11.1042L4.4375 8.6875L10.125 3C10.224 2.90104 10.3854 2.90104 10.4844 3ZM14.7031 2.40365L13.4323 1.13281C13.0365 0.736979 12.3932 0.736979 11.9948 1.13281L11.0729 2.05469C10.974 2.15365 10.974 2.3151 11.0729 2.41406L13.4219 4.76302C13.5208 4.86198 13.6823 4.86198 13.7812 4.76302L14.7031 3.84115C15.099 3.44271 15.099 2.79948 14.7031 2.40365ZM10 9.84896V12.5H1.66667V4.16667H7.65104C7.73437 4.16667 7.8125 4.13281 7.8724 4.07552L8.91406 3.03385C9.11198 2.83594 8.97135 2.5 8.69271 2.5H1.25C0.559896 2.5 0 3.0599 0 3.75V12.9167C0 13.6068 0.559896 14.1667 1.25 14.1667H10.4167C11.1068 14.1667 11.6667 13.6068 11.6667 12.9167V8.80729C11.6667 8.52865 11.3307 8.39062 11.1328 8.58594L10.0911 9.6276C10.0339 9.6875 10 9.76562 10 9.84896Z" fill="white"/>
</svg>
