<svg width="23" height="23" viewBox="0 0 23 23" fill="none" xmlns="http://www.w3.org/2000/svg">
<path d="M1.18897 16.1875H13.9985C14.0808 16.1876 14.1623 16.1714 14.2383 16.1399C14.3144 16.1085 14.3835 16.0623 14.4417 16.0042C14.4998 15.946 14.546 15.8769 14.5774 15.8008C14.6089 15.7248 14.6251 15.6433 14.625 15.561V13.689C14.6251 13.6067 14.6089 13.5252 14.5774 13.4492C14.546 13.3731 14.4998 13.304 14.4417 13.2458C14.3835 13.1877 14.3144 13.1415 14.2383 13.1101C14.1623 13.0786 14.0808 13.0624 13.9985 13.0625H1.18897C1.10668 13.0624 1.02519 13.0786 0.949151 13.1101C0.873116 13.1415 0.80403 13.1877 0.745844 13.2458C0.687659 13.304 0.641516 13.3731 0.610056 13.4492C0.578596 13.5252 0.562436 13.6067 0.5625 13.689V15.561C0.562436 15.6433 0.578596 15.7248 0.610056 15.8008C0.641516 15.8769 0.687659 15.946 0.745844 16.0042C0.80403 16.0623 0.873116 16.1085 0.949151 16.1399C1.02519 16.1714 1.10668 16.1876 1.18897 16.1875ZM1.18897 3.6875H13.9985C14.0808 3.68756 14.1623 3.6714 14.2383 3.63994C14.3144 3.60848 14.3835 3.56234 14.4417 3.50416C14.4998 3.44597 14.546 3.37688 14.5774 3.30085C14.6089 3.22481 14.6251 3.14332 14.625 3.06104V1.18897C14.6251 1.10668 14.6089 1.02519 14.5774 0.949151C14.546 0.873116 14.4998 0.80403 14.4417 0.745844C14.3835 0.687659 14.3144 0.641516 14.2383 0.610056C14.1623 0.578596 14.0808 0.562436 13.9985 0.5625H1.18897C1.10668 0.562436 1.02519 0.578596 0.949151 0.610056C0.873116 0.641516 0.80403 0.687659 0.745844 0.745844C0.687659 0.80403 0.641516 0.873116 0.610056 0.949151C0.578596 1.02519 0.562436 1.10668 0.5625 1.18897V3.06104C0.562436 3.14332 0.578596 3.22481 0.610056 3.30085C0.641516 3.37688 0.687659 3.44597 0.745844 3.50416C0.80403 3.56234 0.873116 3.60848 0.949151 3.63994C1.02519 3.6714 1.10668 3.68756 1.18897 3.6875ZM21.6562 6.8125H1.34375C1.13655 6.8125 0.937836 6.89481 0.791323 7.04132C0.64481 7.18784 0.5625 7.38655 0.5625 7.59375V9.15625C0.5625 9.36345 0.64481 9.56216 0.791323 9.70868C0.937836 9.85519 1.13655 9.9375 1.34375 9.9375H21.6562C21.8635 9.9375 22.0622 9.85519 22.2087 9.70868C22.3552 9.56216 22.4375 9.36345 22.4375 9.15625V7.59375C22.4375 7.38655 22.3552 7.18784 22.2087 7.04132C22.0622 6.89481 21.8635 6.8125 21.6562 6.8125ZM21.6562 19.3125H1.34375C1.13655 19.3125 0.937836 19.3948 0.791323 19.5413C0.64481 19.6878 0.5625 19.8865 0.5625 20.0938V21.6562C0.5625 21.8635 0.64481 22.0622 0.791323 22.2087C0.937836 22.3552 1.13655 22.4375 1.34375 22.4375H21.6562C21.8635 22.4375 22.0622 22.3552 22.2087 22.2087C22.3552 22.0622 22.4375 21.8635 22.4375 21.6562V20.0938C22.4375 19.8865 22.3552 19.6878 22.2087 19.5413C22.0622 19.3948 21.8635 19.3125 21.6562 19.3125Z" fill="#848484"/>
</svg>
