<svg width="25" height="19" viewBox="0 0 25 19" fill="none" xmlns="http://www.w3.org/2000/svg">
<path d="M17.3014 12.2722C21.798 9.00555 23.4175 7.80129 24.5 6.96876V16.5312C24.5 17.5491 23.6741 18.375 22.6562 18.375H2.34375C1.32595 18.375 0.5 17.5491 0.5 16.5312V6.97341C1.5836 7.80545 3.20752 9.006 7.70373 12.2724C7.84181 12.3732 8.00292 12.4974 8.18164 12.6353C8.61629 12.9705 9.15508 13.3861 9.72005 13.7397C10.5243 14.2432 11.4902 14.697 12.4994 14.6924C13.5151 14.6998 14.493 14.2374 15.3012 13.7303C15.8681 13.3745 16.4076 12.9574 16.8349 12.627C17.0116 12.4904 17.1691 12.3687 17.3014 12.2722ZM12.5086 12.1251L12.5 12.1249L12.4914 12.1251C12.3094 12.1282 12.0706 12.071 11.7777 11.943C11.4896 11.8171 11.1808 11.6368 10.8676 11.4286C10.4502 11.1511 10.0731 10.8593 9.7355 10.598C9.54815 10.453 9.37296 10.3174 9.20982 10.1989L9.20968 10.1988C3.21032 5.84513 2.34936 5.17132 1.0725 4.17203C0.971403 4.09291 0.867703 4.01176 0.758639 3.92657C0.593392 3.7949 0.5 3.60158 0.5 3.39648V2.46875C0.5 1.45095 1.32595 0.625 2.34375 0.625H22.6562C23.6741 0.625 24.5 1.45095 24.5 2.46875V3.39648C24.5 3.60531 24.4038 3.8005 24.2443 3.92429L24.2422 3.92591C24.1578 3.99213 24.0766 4.0559 23.9973 4.11814C22.6805 5.15218 21.8999 5.76513 15.7903 10.1988L15.7902 10.1989C15.627 10.3174 15.4518 10.453 15.2645 10.598C14.9269 10.8593 14.5498 11.1511 14.1324 11.4286C13.8192 11.6368 13.5104 11.8171 13.2223 11.943C12.9294 12.071 12.6906 12.1282 12.5086 12.1251Z" stroke="#353535"/>
</svg>
