<svg width="39" height="29" viewBox="0 0 39 29" fill="none" xmlns="http://www.w3.org/2000/svg">
<path d="M37.8519 2.22022C35.4882 1.22877 33.1226 0.851563 30.7582 0.851563C23.2525 0.850953 15.7475 4.65041 8.2418 4.65041C6.35944 4.65041 4.4783 4.41153 2.59594 3.81434C2.38448 3.74731 2.17242 3.71563 1.96523 3.71563C0.9165 3.71563 0 4.52731 0 5.65405V24.9871C0 25.7567 0.440578 26.4861 1.14806 26.7823C3.51183 27.7744 5.87742 28.1516 8.2418 28.1516C15.7475 28.1516 23.2531 24.3521 30.7588 24.3521C32.6412 24.3521 34.5223 24.591 36.4047 25.1882C36.6161 25.2552 36.8282 25.2869 37.0354 25.2869C38.0841 25.2869 39.0006 24.4752 39.0006 23.3485V4.01605C39 3.2458 38.5594 2.51698 37.8519 2.22022ZM2.925 6.95872C4.15106 7.26584 5.43075 7.42002 6.747 7.50289C6.38869 9.29384 4.81406 10.6436 2.925 10.6436V6.95872ZM2.925 24.3259V21.4143C5.01942 21.4143 6.71409 23.0761 6.80733 25.1559C5.43441 25.0456 4.15106 24.7714 2.925 24.3259ZM19.5 20.3516C16.8072 20.3516 14.625 17.7319 14.625 14.5016C14.625 11.2707 16.8078 8.65156 19.5 8.65156C22.1922 8.65156 24.375 11.2707 24.375 14.5016C24.375 17.7331 22.1916 20.3516 19.5 20.3516ZM36.075 22.0444C35.0074 21.7769 33.8989 21.627 32.7649 21.5301C33.1226 19.9408 34.4407 18.7343 36.075 18.5271V22.0444ZM36.075 7.65645C34.1926 7.41819 32.732 5.84661 32.6741 3.90575C33.8648 4.03798 34.9952 4.28539 36.075 4.67722V7.65645Z" fill="#3CD586"/>
</svg>
