<svg width="25" height="19" viewBox="0 0 25 19" fill="none" xmlns="http://www.w3.org/2000/svg">
<path d="M19.7168 1.25H19.7168C17.3843 1.24981 15.0401 1.8403 12.6227 2.45215L12.5909 2.4602C10.2072 3.06352 7.75107 3.68516 5.2832 3.68516C4.03353 3.68516 2.77575 3.52645 1.51297 3.12584L19.7168 1.25ZM19.7168 1.25C21.1774 1.25 22.6263 1.48262 24.0707 2.08843C24.3202 2.1931 24.5001 2.46573 24.5004 2.77891V15.1711C24.5004 15.5954 24.159 15.9137 23.7406 15.9137C23.6591 15.9137 23.5741 15.9012 23.4874 15.8738C22.2246 15.4732 20.9669 15.3145 19.7172 15.3145C17.2491 15.3145 14.7928 15.9362 12.4088 16.5396L12.3775 16.5475C9.95994 17.1594 7.61569 17.75 5.2832 17.75C3.82263 17.75 2.3737 17.5174 0.929435 16.9112L0.929005 16.911M19.7168 1.25L0.929005 16.911M0.929005 16.911C0.679901 16.8068 0.5 16.5341 0.5 16.2215V3.82852C0.5 3.40416 0.841356 3.08594 1.25977 3.08594C1.34126 3.08594 1.4262 3.09835 1.51286 3.12581L0.929005 16.911ZM1.99649 4.17983L1.375 4.02415V4.66484V7.02695V7.52695H1.875C3.33056 7.52695 4.54009 6.48728 4.81528 5.11176L4.92755 4.55062L4.35642 4.51466C3.52975 4.46261 2.74229 4.36665 1.99649 4.17983ZM1.375 15.7977V16.148L1.70426 16.2676C2.53463 16.5693 3.40145 16.754 4.32363 16.8281L4.88855 16.8735L4.86317 16.3073C4.7917 14.713 3.49107 13.4312 1.875 13.4312H1.375V13.9312V15.7977ZM23.0035 14.8202L23.625 14.9759V14.3352V12.0805V11.5131L23.0621 11.5844C21.8054 11.7438 20.7908 12.6718 20.5153 13.8957L20.3895 14.4549L20.9606 14.5037C21.6727 14.5645 22.3545 14.6575 23.0035 14.8202ZM23.0622 5.60815L23.625 5.67939V5.11211V3.20234V2.85188L23.2956 2.73233C22.5611 2.46583 21.7971 2.29938 21.0001 2.21087L20.428 2.14733L20.4451 2.72272C20.4897 4.21544 21.6138 5.42481 23.0622 5.60815ZM8.875 9.5C8.875 11.7576 10.4161 13.75 12.5 13.75C14.5829 13.75 16.125 11.7585 16.125 9.5C16.125 7.24198 14.5834 5.25 12.5 5.25C10.4166 5.25 8.875 7.24198 8.875 9.5Z" stroke="#BDBDBD"/>
</svg>
