<svg width="25" height="21" viewBox="0 0 25 21" fill="none" xmlns="http://www.w3.org/2000/svg">
<path d="M12.0052 20H1.875C1.11599 20 0.5 19.384 0.5 18.625V17C0.5 14.3777 2.6277 12.25 5.25 12.25H5.79536C6.70154 12.6486 7.69813 12.875 8.75 12.875C9.80119 12.875 10.8015 12.6489 11.705 12.25H12.25C13.4874 12.25 14.6072 12.7354 15.4503 13.5222L12.7793 16.1933L12.4707 16.5019L12.3461 16.6265L12.3271 16.8017L12.2804 17.2336L12.2802 17.2353L12.0148 19.6125L12.0147 19.6135C12.0004 19.7439 11.9976 19.873 12.0052 20ZM19.4061 12.7499L21.4999 14.8438L16.5907 19.753L14.3859 19.9992L14.3824 19.9996C14.3128 20.0079 14.2422 19.9472 14.251 19.8627C14.251 19.8625 14.251 19.8624 14.251 19.8622L14.497 17.6555L19.4061 12.7499ZM13.25 5.5C13.25 7.98558 11.2356 10 8.75 10C6.26442 10 4.25 7.98558 4.25 5.5C4.25 3.01442 6.26442 1 8.75 1C11.2356 1 13.25 3.01442 13.25 5.5ZM22.8925 9.87699L24.3711 11.3556C24.3714 11.3559 24.3717 11.3561 24.372 11.3564C24.5414 11.5286 24.5414 11.8035 24.372 11.9756C24.3717 11.9759 24.3714 11.9762 24.3711 11.9765L23.0935 13.2541L20.9964 11.1599L22.2793 9.87699C22.4474 9.70897 22.7245 9.70897 22.8925 9.87699Z" stroke="#C1C1C1"/>
</svg>
