<svg width="23" height="23" viewBox="0 0 23 23" fill="none" xmlns="http://www.w3.org/2000/svg">
<path d="M5.20895 13.9589L5.08477 14.0831L5.06552 14.2577L4.75789 17.0458L4.75763 17.0482C4.68551 17.7334 5.26197 18.3194 5.95597 18.2473L5.95913 18.247L8.74722 17.9394L8.92176 17.9201L9.04594 17.7959L15.6719 11.17C15.8813 10.9606 15.9452 10.6677 15.8755 10.4051C16.1365 10.4706 16.4232 10.4003 16.6262 10.2057L16.6263 10.2058L16.6338 10.1983L17.7618 9.07035C18.4122 8.41995 18.4095 7.36262 17.7636 6.70986L17.7618 6.70797L16.292 5.23824C15.6392 4.58539 14.5797 4.58232 13.9288 5.23912C13.9284 5.23946 13.9281 5.2398 13.9278 5.24014L12.8017 6.36617C12.5926 6.57532 12.5286 6.86777 12.5978 7.13013C12.3367 7.06079 12.0458 7.12208 11.8349 7.33297L5.20895 13.9589ZM20.0938 21.9375H2.90625C1.88845 21.9375 1.0625 21.1116 1.0625 20.0938V2.90625C1.0625 1.88845 1.88845 1.0625 2.90625 1.0625H20.0938C21.1116 1.0625 21.9375 1.88845 21.9375 2.90625V20.0938C21.9375 21.1116 21.1116 21.9375 20.0938 21.9375Z" stroke="#B5B5B5"/>
</svg>
