<svg width="12" height="14" viewBox="0 0 12 14" fill="none" xmlns="http://www.w3.org/2000/svg">
<path d="M1.5 12.6875C1.5 13.0356 1.61853 13.3694 1.8295 13.6156C2.04048 13.8617 2.32663 14 2.625 14H9.375C9.67337 14 9.95952 13.8617 10.1705 13.6156C10.3815 13.3694 10.5 13.0356 10.5 12.6875V3.5H1.5V12.6875ZM7.875 5.6875C7.875 5.57147 7.91451 5.46019 7.98483 5.37815C8.05516 5.2961 8.15054 5.25 8.25 5.25C8.34946 5.25 8.44484 5.2961 8.51517 5.37815C8.58549 5.46019 8.625 5.57147 8.625 5.6875V11.8125C8.625 11.9285 8.58549 12.0398 8.51517 12.1219C8.44484 12.2039 8.34946 12.25 8.25 12.25C8.15054 12.25 8.05516 12.2039 7.98483 12.1219C7.91451 12.0398 7.875 11.9285 7.875 11.8125V5.6875ZM5.625 5.6875C5.625 5.57147 5.66451 5.46019 5.73484 5.37815C5.80516 5.2961 5.90054 5.25 6 5.25C6.09946 5.25 6.19484 5.2961 6.26516 5.37815C6.33549 5.46019 6.375 5.57147 6.375 5.6875V11.8125C6.375 11.9285 6.33549 12.0398 6.26516 12.1219C6.19484 12.2039 6.09946 12.25 6 12.25C5.90054 12.25 5.80516 12.2039 5.73484 12.1219C5.66451 12.0398 5.625 11.9285 5.625 11.8125V5.6875ZM3.375 5.6875C3.375 5.57147 3.41451 5.46019 3.48484 5.37815C3.55516 5.2961 3.65054 5.25 3.75 5.25C3.84946 5.25 3.94484 5.2961 4.01516 5.37815C4.08549 5.46019 4.125 5.57147 4.125 5.6875V11.8125C4.125 11.9285 4.08549 12.0398 4.01516 12.1219C3.94484 12.2039 3.84946 12.25 3.75 12.25C3.65054 12.25 3.55516 12.2039 3.48484 12.1219C3.41451 12.0398 3.375 11.9285 3.375 11.8125V5.6875ZM10.875 0.875005H8.0625L7.84219 0.363677C7.79552 0.25436 7.72363 0.162406 7.63461 0.0981575C7.54558 0.0339095 7.44296 -8.27959e-05 7.33828 4.7941e-06H4.65938C4.55493 -0.000463619 4.45249 0.0334019 4.36378 0.0977214C4.27508 0.162041 4.20369 0.254213 4.15781 0.363677L3.9375 0.875005H1.125C1.02554 0.875005 0.930161 0.921098 0.859835 1.00315C0.789509 1.08519 0.75 1.19647 0.75 1.3125L0.75 2.1875C0.75 2.30354 0.789509 2.41482 0.859835 2.49686C0.930161 2.57891 1.02554 2.625 1.125 2.625H10.875C10.9745 2.625 11.0698 2.57891 11.1402 2.49686C11.2105 2.41482 11.25 2.30354 11.25 2.1875V1.3125C11.25 1.19647 11.2105 1.08519 11.1402 1.00315C11.0698 0.921098 10.9745 0.875005 10.875 0.875005Z" fill="white"/>
</svg>
