<svg width="46" height="38" viewBox="0 0 46 38" fill="none" xmlns="http://www.w3.org/2000/svg">
<path d="M33.9534 18.5762L35.01 19.6397L36.0741 18.5837L43.146 11.5658L44.2352 12.6668L34.9958 21.8342L30.0339 16.8359L31.1367 15.7409L33.9534 18.5762ZM42.6855 11.1004L42.6912 11.1061C42.6893 11.1042 42.6874 11.1023 42.6855 11.1004ZM23.8 9.79961C23.8 14.0527 20.3531 17.4996 16.1 17.4996C11.8469 17.4996 8.4 14.0527 8.4 9.79961C8.4 5.54647 11.8469 2.09961 16.1 2.09961C20.3531 2.09961 23.8 5.54647 23.8 9.79961ZM16.1 23.9496C18.0743 23.9496 19.9547 23.5341 21.6583 22.7996H22.54C27.0447 22.7996 30.7 26.4549 30.7 30.9596V33.9496C30.7 35.0259 29.8263 35.8996 28.75 35.8996H3.45C2.37374 35.8996 1.5 35.0259 1.5 33.9496V30.9596C1.5 26.4549 5.1553 22.7996 9.66 22.7996H10.5428C12.2499 23.5333 14.1238 23.9496 16.1 23.9496Z" stroke="#F2994A" stroke-width="3"/>
</svg>
